PathFileType	4	(X/Y/Z)	/Users/mathieubourgeois/Desktop/Analyse/Traitement/Sujet_07/Transformed_Static_Sujet_07_Tpose.trc
DataRate	CameraRate	NumFrames	NumMarkers	Units	OrigDataRate	OrigDataStartFrame	OrigNumFrames
120.000000	120.000000	6	36	mm	120.000000	35	286
Frame#	Time	RFHD			LFHD			RBHD			LBHD			C7			CLAV			RSHO			LSHO			STRN			T10			RBWT			LBWT			RFWT			LFWT			RKNI			LKNI			RKNE			LKNE			LANI			RANI			LANE			RANE			LTOE			RTOE			LHEE			RHEE			RHUM			LHUM			RRAD			LRAD			RWRA			RWRB			LWRA			LWRB			LCAR			RCAR			
		X1	Y1	Z1	X2	Y2	Z2	X3	Y3	Z3	X4	Y4	Z4	X5	Y5	Z5	X6	Y6	Z6	X7	Y7	Z7	X8	Y8	Z8	X9	Y9	Z9	X10	Y10	Z10	X11	Y11	Z11	X12	Y12	Z12	X13	Y13	Z13	X14	Y14	Z14	X15	Y15	Z15	X16	Y16	Z16	X17	Y17	Z17	X18	Y18	Z18	X19	Y19	Z19	X20	Y20	Z20	X21	Y21	Z21	X22	Y22	Z22	X23	Y23	Z23	X24	Y24	Z24	X25	Y25	Z25	X26	Y26	Z26	X27	Y27	Z27	X28	Y28	Z28	X29	Y29	Z29	X30	Y30	Z30	X31	Y31	Z31	X32	Y32	Z32	X33	Y33	Z33	X34	Y34	Z34	X35	Y35	Z35	X36	Y36	Z36	

36	0.2916666666666667	-541.1173095703125	1758.831909179688	334.5420837402342	-408.0103454589844	1757.698364257812	345.7650146484373	-543.5419921875	1756.040161132812	180.0926361083983	-400.8887939453125	1754.129150390625	177.4357147216795	-471.257080078125	1587.340209960938	149.3317871093749	-484.0233764648438	1533.605346679688	269.7525634765623	-625.2592163085938	1597.073364257812	175.8182678222655	-335.3876037597656	1599.292236328125	172.8902893066405	-481.2879028320313	1346.479614257812	309.0525512695311	-477.992919921875	1340.202026367188	96.32378387451158	-540.18994140625	1099.67041015625	177.2396697998046	-425.1578979492188	1094.215576171875	173.8922576904296	-588.322021484375	1063.912475585938	351.9057006835936	-372.9802246093751	1065.266357421875	343.6004943847655	-545.0205688476562	476.2222290039062	204.0260009765624	-441.8858642578125	476.4924011230469	171.2969512939452	-648.5393676757812	532.7792358398438	205.5939025878905	-335.6119384765625	518.6223754882812	183.0081481933593	-426.5932006835938	86.49208831787111	210.8176727294921	-541.4459228515625	89.9086380004883	203.5332794189453	-342.833740234375	69.03968048095705	179.8619537353515	-627.0415649414062	72.07575988769533	179.4117279052734	-350.4681396484376	29.5687122344971	397.1403808593749	-605.3478393554688	31.97769165039065	393.0946655273437	-390.5894775390625	50.24633407592774	132.8821105957031	-583.7208862304688	50.92100906372071	127.5794982910156	-943.17431640625	1470.8486328125	220.135787963867	-22.66918182373049	1443.082641601562	213.5967559814452	-947.5125122070312	1521.4580078125	176.5720977783201	-7.893087387084982	1498.99658203125	177.6205902099609	-1215.061889648438	1599.820434570312	218.1109161376951	-1221.771118164062	1532.979614257812	190.0124206542966	251.5453033447265	1549.719482421875	240.9853973388671	263.2501831054688	1477.178955078125	219.2127685546874	356.5428771972656	1534.018676757812	211.9184265136718	-1324.201782226562	1579.6806640625	198.2532958984372	
37	0.3	-541.1010131835938	1758.828735351562	334.5420837402342	-407.9963684082032	1757.739501953125	345.7528381347655	-543.5560913085938	1756.015502929688	180.1022033691405	-400.8969116210938	1754.141723632812	177.4087066650389	-471.2123413085938	1587.321533203125	149.3366851806639	-483.9833679199219	1533.59912109375	269.7501525878905	-625.219970703125	1597.049682617188	175.8055267333983	-335.335693359375	1599.288330078125	172.9117126464843	-481.2266845703126	1346.478759765625	309.0628662109374	-477.9271240234375	1340.1943359375	96.35524749755845	-539.9778442382812	1099.580444335938	177.3498535156249	-425.0897521972656	1094.21728515625	173.939483642578	-588.2290649414062	1063.912231445312	351.9684143066405	-372.9063720703126	1065.26708984375	343.6207885742186	-544.9766235351562	476.224609375	204.0695648193359	-441.849853515625	476.4988098144531	171.3041687011718	-648.5013427734375	532.782470703125	205.6429595947264	-335.5756225585938	518.6246337890625	183.0103759765624	-426.5933532714844	86.49011993408205	210.8043060302734	-541.4487915039062	89.90394592285158	203.5396881103515	-342.8153076171875	69.04113769531251	179.8498229980468	-627.037353515625	72.07865142822267	179.403579711914	-350.4665832519532	29.56034278869631	397.1378173828124	-605.3375854492188	31.98487091064456	393.0951843261718	-390.5964965820312	50.24805450439454	132.8907775878906	-583.7205810546875	50.92839813232423	127.5756454467773	-943.1041870117188	1470.784912109375	220.1553344726561	-22.67247962951663	1442.9658203125	213.6916961669921	-947.4633178710938	1521.400146484375	176.5900878906248	-7.881083488464377	1498.85205078125	177.6725616455077	-1215.014770507812	1599.722412109375	218.142150878906	-1221.727294921875	1532.870239257812	190.0699615478513	251.6261138916015	1549.430053710938	241.0387115478515	263.25830078125	1476.910522460938	219.2341308593749	356.6141967773438	1533.642333984375	212.02392578125	-1324.14404296875	1579.603881835938	198.2749481201169	
38	0.3083333333333333	-541.0843505859375	1758.837646484375	334.5353088378905	-407.9726257324219	1757.7734375	345.7030029296873	-543.5587768554688	1755.981323242188	180.0775451660155	-400.8906555175781	1754.152709960938	177.3726196289061	-471.1454772949219	1587.328735351562	149.3278656005858	-483.9333190917969	1533.587890625	269.7414550781248	-625.1834106445312	1597.01025390625	175.7786865234373	-335.2705688476562	1599.277709960938	172.9229736328124	-481.1823730468751	1346.477661132812	309.0721435546874	-477.8652648925781	1340.190063476562	96.38172149658189	-539.915283203125	1099.57080078125	177.3968811035155	-425.0215454101562	1094.232666015625	173.9664154052733	-588.1449584960938	1063.916870117188	352.004180908203	-372.8302612304688	1065.2548828125	343.6319580078124	-544.9486694335938	476.2209167480469	204.1231079101562	-441.802978515625	476.4997253417969	171.3147735595702	-648.46435546875	532.7958984375	205.6754760742186	-335.546875	518.6181030273438	183.0218200683593	-426.6037292480469	86.49443817138673	210.8014831542968	-541.439208984375	89.9015579223633	203.5481872558593	-342.8147583007812	69.04016876220705	179.8433685302734	-627.0274658203125	72.08050537109376	179.4169158935546	-350.4667968750001	29.56214141845706	397.1429138183593	-605.3385620117188	31.97106933593752	393.0941162109374	-390.5977783203125	50.24448776245118	132.8769531249999	-583.7150268554688	50.92900466918946	127.5832977294921	-943.0435180664062	1470.734619140625	220.1644134521482	-22.65956878662112	1442.857788085938	213.7876739501952	-947.4168701171875	1521.34326171875	176.6001129150389	-7.834841251373313	1498.727416992188	177.7306365966796	-1214.972045898438	1599.603637695312	218.1978454589841	-1221.700927734375	1532.760620117188	190.1226806640623	251.7066497802734	1549.152587890625	241.0802764892578	263.2851867675781	1476.63427734375	219.2953491210937	356.7166442871094	1533.293334960938	212.1270751953125	-1324.096069335938	1579.51171875	198.2978973388669	
39	0.3166666666666667	-541.0798950195312	1758.83935546875	334.5035095214842	-407.9720153808594	1757.805297851562	345.683380126953	-543.5579223632812	1755.953002929688	180.0538330078123	-400.8906860351562	1754.160888671875	177.3434448242186	-471.0985107421875	1587.299682617188	149.3551635742186	-483.8829956054688	1533.589111328125	269.7361450195311	-625.14990234375	1596.977416992188	175.753463745117	-335.2060241699219	1599.25390625	172.9458923339843	-481.1218872070313	1346.469482421875	309.0700073242186	-477.8081359863281	1340.16552734375	96.41439819335923	-539.845703125	1099.566528320312	177.4314117431639	-424.9543762207031	1094.230834960938	173.9894104003905	-588.0797729492188	1063.916625976562	352.0548095703124	-372.7545776367188	1065.253051757812	343.6476440429686	-544.9093627929688	476.2160949707031	204.1589355468749	-441.7740478515625	476.4945678710938	171.3162689208984	-648.4185791015625	532.7936401367188	205.7316436767577	-335.4998168945312	518.624267578125	183.026870727539	-426.5904541015625	86.50729370117189	210.8072662353515	-541.4255981445312	89.89704895019533	203.5604400634765	-342.8163146972656	69.03868103027345	179.8312225341797	-627.0343627929688	72.08745574951173	179.4147796630859	-350.4721069335938	29.56249046325686	397.1462402343749	-605.336669921875	31.98565101623538	393.1004638671874	-390.5916442871094	50.23882293701173	132.8821868896484	-583.69580078125	50.92375946044923	127.5847167968749	-943.0052490234375	1470.667724609375	220.1707458496092	-22.63336181640627	1442.735229492188	213.8650512695312	-947.3810424804688	1521.30078125	176.6312255859373	-7.774109840393089	1498.601196289062	177.7957916259765	-1214.95751953125	1599.484741210938	218.2655029296873	-1221.668212890625	1532.658203125	190.1576080322263	251.7794952392578	1548.8740234375	241.1423187255859	263.3059692382812	1476.34375	219.3175354003906	356.8141784667969	1532.88916015625	212.2491607666015	-1324.052612304688	1579.416625976562	198.3421325683591	
40	0.325	-541.085205078125	1758.831787109375	334.4571533203123	-407.9629211425782	1757.848510742188	345.6472167968748	-543.5494995117188	1755.919677734375	180.0210876464842	-400.88720703125	1754.174072265625	177.324264526367	-471.040771484375	1587.285034179688	149.3535308837889	-483.8584899902344	1533.584228515625	269.7369689941405	-625.1256103515625	1596.942138671875	175.7560577392576	-335.1333923339844	1599.234497070312	172.9643096923827	-481.0801086425782	1346.46533203125	309.0941467285155	-477.7192993164062	1340.15771484375	96.42594909667955	-539.7819213867188	1099.565551757812	177.4874572753905	-424.8964233398438	1094.214965820312	174.0322418212889	-588.00927734375	1063.914428710938	352.0941467285155	-372.6796569824219	1065.246459960938	343.6740112304686	-544.883544921875	476.2135314941406	204.206329345703	-441.7457580566406	476.4960327148438	171.3083343505859	-648.3709106445312	532.8031616210938	205.7707214355468	-335.4675598144531	518.6078491210938	183.036880493164	-426.5872192382812	86.49978637695314	210.7956848144531	-541.4271240234375	89.88111114501955	203.5625915527343	-342.8170776367188	69.03100585937501	179.8582458496093	-627.01611328125	72.0894012451172	179.423355102539	-350.4661254882813	29.56378555297854	397.1440429687499	-605.3359985351562	31.97576904296877	393.1092529296874	-390.5867919921875	50.23154449462891	132.8948974609374	-583.6953735351562	50.92527008056641	127.5945968627929	-942.9492797851562	1470.615966796875	220.1700897216795	-22.59136962890627	1442.60888671875	213.9510345458984	-947.3445434570312	1521.255249023438	176.6328124999998	-7.740703105926536	1498.484008789062	177.8710784912109	-1214.91796875	1599.376708984375	218.3529052734373	-1221.630981445312	1532.560180664062	190.201705932617	251.829360961914	1548.724975585938	241.1324615478515	263.3407592773438	1476.05859375	219.3301086425781	356.8726806640625	1532.580688476562	212.3484497070312	-1324.006103515625	1579.311401367188	198.3779754638669	
41	0.3333333333333333	-541.1011962890625	1758.849243164062	334.4010314941405	-407.9665222167969	1757.88720703125	345.6132812499998	-543.526123046875	1755.886840820312	179.983688354492	-400.8545837402344	1754.161254882812	177.2916259765623	-470.9791870117188	1587.2666015625	149.3599548339842	-483.8048400878907	1533.586303710938	269.740020751953	-625.0814819335938	1596.913330078125	175.7409210205076	-335.0726623535156	1599.20263671875	172.9904174804686	-481.0186462402344	1346.467651367188	309.1021118164061	-477.6496276855469	1340.139892578125	96.45362091064439	-539.7300415039062	1099.576171875	177.5178985595702	-424.8396606445312	1094.207763671875	174.0764160156249	-587.9299926757812	1063.91650390625	352.1427001953124	-372.5999755859376	1065.2451171875	343.7019958496093	-544.8412475585938	476.2122497558594	204.2526855468749	-441.6982727050781	476.4963684082031	171.301055908203	-648.3385620117188	532.7935791015625	205.8163909912108	-335.4209289550781	518.6103515625	183.0662231445312	-426.5824584960938	86.50431060791017	210.8198089599609	-541.4172973632812	89.88130950927736	203.5632629394531	-342.8096313476562	69.01466369628908	179.8418273925781	-627.0020141601562	72.0895462036133	179.4208221435546	-350.4672546386719	29.56473350524905	397.1470642089843	-605.3361206054688	31.97378540039065	393.1185913085937	-390.58203125	50.23614883422852	132.867446899414	-583.6820678710938	50.9317741394043	127.6046066284179	-942.8936157226562	1470.553100585938	220.1679077148436	-22.56275367736819	1442.494506835938	214.0273437499999	-947.292724609375	1521.213256835938	176.6668548583982	-7.685274600982688	1498.3935546875	177.9590759277343	-1214.878540039062	1599.2587890625	218.4327697753904	-1221.58544921875	1532.452514648438	190.2303619384763	251.8892059326172	1548.485961914062	241.2001953124999	263.3605346679688	1475.821655273438	219.3343811035156	356.9271850585938	1532.266845703125	212.4505767822265	-1323.967163085938	1579.201904296875	198.4175720214841	
